<svg width="2500" height="824" viewBox="0 0 2500 824" fill="none" xmlns="http://www.w3.org/2000/svg">
<g clip-path="url(#clip0)">
<path d="M2499.86 256.914H2300.81V589.05C2300.81 604.056 2295.02 616.792 2285.77 627.249C2276.5 636.511 2263.77 641.137 2248.77 642.256H2133.03C2116.83 641.095 2104.09 636.468 2094.84 627.249C2085.55 616.835 2079.8 604.107 2079.8 589.05V256.914H1880.75V606.412C1881.93 652.713 1890.04 693.2 1909.7 725.569C1929.34 757.99 1954.81 782.284 1988.38 798.477C2023.1 814.679 2062.44 823.983 2107.56 823.983H2300.85V821.687C2342.52 821.687 2378.37 812.399 2408.46 795.045C2437.38 776.505 2460.54 751.084 2475.6 718.621C2491.78 686.243 2499.88 648.018 2499.88 606.361L2499.86 256.914V256.914ZM508.166 277.751C473.44 262.71 435.258 255.762 393.593 256.914H265.131L215.374 262.71C203.799 266.176 198.011 268.498 198.011 268.498V0H0.116211V824H198.011V490.687C199.172 476.79 203.799 462.918 214.213 453.657C224.627 444.395 236.202 438.616 252.404 438.616H368.138C382.018 438.616 394.754 444.446 405.168 453.657C415.582 462.918 420.192 476.79 421.361 490.687V824H619.256V465.24C619.256 415.466 608.842 374.97 589.166 343.719C568.354 313.629 541.73 291.639 508.166 277.751ZM1181.7 589.058C1180.54 604.073 1175.91 616.809 1166.66 627.258C1156.23 636.528 1143.51 641.154 1128.47 642.264H1012.73C997.692 641.104 984.964 636.477 975.702 627.258C965.288 616.843 960.661 604.124 959.501 589.058V256.914H761.606V606.412C761.606 652.713 770.867 693.2 789.382 725.569C807.897 757.99 834.513 782.284 868.078 798.477C902.795 814.679 940.986 823.983 987.269 823.983H1181.7V821.687C1223.36 821.687 1259.22 812.399 1288.16 795.045C1317.09 776.505 1340.24 751.084 1356.46 718.621C1371.48 686.243 1379.6 648.018 1380.75 606.361V256.914H1181.7V589.058V589.058ZM1531.21 824H1729.11V0H1531.21V824V824Z" fill="#1CE783"/>
</g>
<defs>
<clipPath id="clip0">
<rect width="2500" height="824" fill="white"/>
</clipPath>
</defs>
</svg>
